{
    "asset" : {
        "generator" : "Khronos glTF Blender I/O v3.3.27",
        "version" : "2.0"
    },
    "scene" : 0,
    "scenes" : [
        {
            "name" : "Scene",
            "nodes" : [
                0,
                1,
                2,
                3,
                4
            ]
        }
    ],
    "nodes" : [
        {
            "name" : "NurbsPath",
            "rotation" : [
                -0.1889421045780182,
                0.010807514190673828,
                -0.0408756248652935,
                0.9810776114463806
            ],
            "scale" : [
                0.8440976142883301,
                0.8440976142883301,
                0.8440976738929749
            ],
            "translation" : [
                -4.118460178375244,
                2.352874994277954,
                -6.000513076782227
            ]
        },
        {
            "mesh" : 0,
            "name" : "Pad",
            "scale" : [
                0.4942684471607208,
                0.4135935604572296,
                0.4744425415992737
            ],
            "translation" : [
                0,
                0.1063019335269928,
                0.5282169580459595
            ]
        },
        {
            "mesh" : 1,
            "name" : "Base",
            "rotation" : [
                0,
                -0.7071068286895752,
                0,
                0.7071068286895752
            ],
            "translation" : [
                0,
                0.055164821445941925,
                0
            ]
        },
        {
            "mesh" : 2,
            "name" : "Monitor",
            "rotation" : [
                -0.5000000596046448,
                -0.5,
                0.4999999701976776,
                0.5
            ],
            "translation" : [
                0,
                0.10483104735612869,
                -1.0000733137130737
            ]
        },
        {
            "mesh" : 3,
            "name" : "Teclado",
            "rotation" : [
                0,
                -0.7071068286895752,
                0,
                0.7071068286895752
            ],
            "translation" : [
                0.0068950653076171875,
                0.06505632400512695,
                -0.44716760516166687
            ]
        }
    ],
    "materials" : [
        {
            "doubleSided" : true,
            "name" : "pad",
            "pbrMetallicRoughness" : {
                "baseColorFactor" : [
                    0.41092973947525024,
                    0.41092973947525024,
                    0.41092973947525024,
                    1
                ],
                "metallicFactor" : 0,
                "roughnessFactor" : 0.5
            }
        },
        {
            "doubleSided" : true,
            "name" : "Frame",
            "normalTexture" : {
                "index" : 0
            },
            "pbrMetallicRoughness" : {
                "baseColorTexture" : {
                    "index" : 1
                }
            }
        },
        {
            "doubleSided" : true,
            "emissiveFactor" : [
                1,
                1,
                1
            ],
            "emissiveTexture" : {
                "index" : 2
            },
            "name" : "Screen",
            "pbrMetallicRoughness" : {
                "baseColorFactor" : [
                    0,
                    0,
                    0,
                    1
                ]
            }
        },
        {
            "doubleSided" : true,
            "name" : "KeyCap",
            "pbrMetallicRoughness" : {
                "baseColorFactor" : [
                    0.0668063685297966,
                    0.0668063685297966,
                    0.0668063685297966,
                    1
                ]
            }
        }
    ],
    "meshes" : [
        {
            "name" : "Cube.003",
            "primitives" : [
                {
                    "attributes" : {
                        "POSITION" : 0,
                        "NORMAL" : 1
                    },
                    "indices" : 2,
                    "material" : 0
                }
            ]
        },
        {
            "name" : "Cube.002",
            "primitives" : [
                {
                    "attributes" : {
                        "POSITION" : 3,
                        "NORMAL" : 4,
                        "TEXCOORD_0" : 5
                    },
                    "indices" : 6,
                    "material" : 1
                }
            ]
        },
        {
            "name" : "Cube.006",
            "primitives" : [
                {
                    "attributes" : {
                        "POSITION" : 7,
                        "NORMAL" : 8,
                        "TEXCOORD_0" : 9
                    },
                    "indices" : 10,
                    "material" : 1
                },
                {
                    "attributes" : {
                        "POSITION" : 11,
                        "NORMAL" : 12,
                        "TEXCOORD_0" : 13
                    },
                    "indices" : 14,
                    "material" : 2
                }
            ]
        },
        {
            "name" : "Cube.007",
            "primitives" : [
                {
                    "attributes" : {
                        "POSITION" : 15,
                        "NORMAL" : 16,
                        "TEXCOORD_0" : 17
                    },
                    "indices" : 18,
                    "material" : 3
                }
            ]
        }
    ],
    "textures" : [
        {
            "sampler" : 0,
            "source" : 0
        },
        {
            "sampler" : 0,
            "source" : 1
        },
        {
            "sampler" : 0,
            "source" : 2
        }
    ],
    "images" : [
        {
            "bufferView" : 7,
            "mimeType" : "image/jpeg",
            "name" : "Metal_scratched_008_normal"
        },
        {
            "bufferView" : 8,
            "mimeType" : "image/jpeg",
            "name" : "Metal_scratched_008_basecolor"
        },
        {
            "bufferView" : 17,
            "mimeType" : "image/jpeg",
            "name" : "ScreenImg"
        }
    ],
    "accessors" : [
        {
            "bufferView" : 0,
            "componentType" : 5126,
            "count" : 25,
            "max" : [
                0.9086956977844238,
                0,
                0.6652742028236389
            ],
            "min" : [
                0,
                0,
                -0.5628708600997925
            ],
            "type" : "VEC3"
        },
        {
            "bufferView" : 1,
            "componentType" : 5126,
            "count" : 25,
            "type" : "VEC3"
        },
        {
            "bufferView" : 2,
            "componentType" : 5123,
            "count" : 108,
            "type" : "SCALAR"
        },
        {
            "bufferView" : 3,
            "componentType" : 5126,
            "count" : 160,
            "max" : [
                1,
                0.050000011920928955,
                1.399999976158142
            ],
            "min" : [
                -1,
                -0.050000011920928955,
                -1.399999976158142
            ],
            "type" : "VEC3"
        },
        {
            "bufferView" : 4,
            "componentType" : 5126,
            "count" : 160,
            "type" : "VEC3"
        },
        {
            "bufferView" : 5,
            "componentType" : 5126,
            "count" : 160,
            "type" : "VEC2"
        },
        {
            "bufferView" : 6,
            "componentType" : 5123,
            "count" : 444,
            "type" : "SCALAR"
        },
        {
            "bufferView" : 9,
            "componentType" : 5126,
            "count" : 212,
            "max" : [
                2,
                0.09999996423721313,
                1.399999976158142
            ],
            "min" : [
                0,
                -5.960464477539063e-08,
                -1.399999976158142
            ],
            "type" : "VEC3"
        },
        {
            "bufferView" : 10,
            "componentType" : 5126,
            "count" : 212,
            "type" : "VEC3"
        },
        {
            "bufferView" : 11,
            "componentType" : 5126,
            "count" : 212,
            "type" : "VEC2"
        },
        {
            "bufferView" : 12,
            "componentType" : 5123,
            "count" : 630,
            "type" : "SCALAR"
        },
        {
            "bufferView" : 13,
            "componentType" : 5126,
            "count" : 32,
            "max" : [
                1.8282339572906494,
                0.056694258004426956,
                1.2121036052703857
            ],
            "min" : [
                0.3760319948196411,
                0.056694258004426956,
                -1.2121036052703857
            ],
            "type" : "VEC3"
        },
        {
            "bufferView" : 14,
            "componentType" : 5126,
            "count" : 32,
            "type" : "VEC3"
        },
        {
            "bufferView" : 15,
            "componentType" : 5126,
            "count" : 32,
            "type" : "VEC2"
        },
        {
            "bufferView" : 16,
            "componentType" : 5123,
            "count" : 102,
            "type" : "SCALAR"
        },
        {
            "bufferView" : 18,
            "componentType" : 5126,
            "count" : 1660,
            "max" : [
                0.44542548060417175,
                0.029601454734802246,
                1.147070288658142
            ],
            "min" : [
                -0.4189317524433136,
                -0.029599666595458984,
                -1.147068738937378
            ],
            "type" : "VEC3"
        },
        {
            "bufferView" : 19,
            "componentType" : 5126,
            "count" : 1660,
            "type" : "VEC3"
        },
        {
            "bufferView" : 20,
            "componentType" : 5126,
            "count" : 1660,
            "type" : "VEC2"
        },
        {
            "bufferView" : 21,
            "componentType" : 5123,
            "count" : 2490,
            "type" : "SCALAR"
        }
    ],
    "bufferViews" : [
        {
            "buffer" : 0,
            "byteLength" : 300,
            "byteOffset" : 0,
            "target" : 34962
        },
        {
            "buffer" : 0,
            "byteLength" : 300,
            "byteOffset" : 300,
            "target" : 34962
        },
        {
            "buffer" : 0,
            "byteLength" : 216,
            "byteOffset" : 600,
            "target" : 34963
        },
        {
            "buffer" : 0,
            "byteLength" : 1920,
            "byteOffset" : 816,
            "target" : 34962
        },
        {
            "buffer" : 0,
            "byteLength" : 1920,
            "byteOffset" : 2736,
            "target" : 34962
        },
        {
            "buffer" : 0,
            "byteLength" : 1280,
            "byteOffset" : 4656,
            "target" : 34962
        },
        {
            "buffer" : 0,
            "byteLength" : 888,
            "byteOffset" : 5936,
            "target" : 34963
        },
        {
            "buffer" : 0,
            "byteLength" : 20559,
            "byteOffset" : 6824
        },
        {
            "buffer" : 0,
            "byteLength" : 189727,
            "byteOffset" : 27384
        },
        {
            "buffer" : 0,
            "byteLength" : 2544,
            "byteOffset" : 217112,
            "target" : 34962
        },
        {
            "buffer" : 0,
            "byteLength" : 2544,
            "byteOffset" : 219656,
            "target" : 34962
        },
        {
            "buffer" : 0,
            "byteLength" : 1696,
            "byteOffset" : 222200,
            "target" : 34962
        },
        {
            "buffer" : 0,
            "byteLength" : 1260,
            "byteOffset" : 223896,
            "target" : 34963
        },
        {
            "buffer" : 0,
            "byteLength" : 384,
            "byteOffset" : 225156,
            "target" : 34962
        },
        {
            "buffer" : 0,
            "byteLength" : 384,
            "byteOffset" : 225540,
            "target" : 34962
        },
        {
            "buffer" : 0,
            "byteLength" : 256,
            "byteOffset" : 225924,
            "target" : 34962
        },
        {
            "buffer" : 0,
            "byteLength" : 204,
            "byteOffset" : 226180,
            "target" : 34963
        },
        {
            "buffer" : 0,
            "byteLength" : 185243,
            "byteOffset" : 226384
        },
        {
            "buffer" : 0,
            "byteLength" : 19920,
            "byteOffset" : 411628,
            "target" : 34962
        },
        {
            "buffer" : 0,
            "byteLength" : 19920,
            "byteOffset" : 431548,
            "target" : 34962
        },
        {
            "buffer" : 0,
            "byteLength" : 13280,
            "byteOffset" : 451468,
            "target" : 34962
        },
        {
            "buffer" : 0,
            "byteLength" : 4980,
            "byteOffset" : 464748,
            "target" : 34963
        }
    ],
    "samplers" : [
        {
            "magFilter" : 9729,
            "minFilter" : 9987
        }
    ],
    "buffers" : [
        {
            "byteLength" : 469728,
            "uri" : "data:application/octet-stream;base64,"
        }
    ]
}
